<?xml version="1.0" encoding="UTF-8"?>
<!-- Generator: Adobe Illustrator 21.1.0, SVG Export Plug-In . SVG Version: 6.00 Build 0)  -->
<svg version="1.1" id="Icons" xmlns="http://www.w3.org/2000/svg" xmlns:xlink="http://www.w3.org/1999/xlink" x="0px" y="0px" viewBox="0 0 48 48" style="enable-background:new 0 0 48 48;" xml:space="preserve">
<style type="text/css">
	.st0{opacity:0.15;fill:#45413C;}
	.st1{fill:#FF6196;}
	.st2{fill:#FF87AF;}
	.st3{fill:none;stroke:#45413C;stroke-linecap:round;stroke-linejoin:round;stroke-miterlimit:10;}
	.st4{fill:#FFE500;stroke:#45413C;stroke-linecap:round;stroke-linejoin:round;stroke-miterlimit:10;}
	.st5{fill:#FFE500;}
	.st6{fill:#EBCB00;}
	.st7{fill:#EBCB00;stroke:#45413C;stroke-linecap:round;stroke-linejoin:round;stroke-miterlimit:10;}
	.st8{fill:#FFF48C;}
	.st9{fill:#FFCCDD;stroke:#FFB0CA;stroke-linecap:round;stroke-linejoin:round;stroke-miterlimit:10;}
	.st10{fill:#FFB0CA;stroke:#FF87AF;stroke-linecap:round;stroke-linejoin:round;stroke-miterlimit:10;}
	.st11{opacity:0.7;fill:#FFE5EE;}
	.st12{fill:#009FD9;}
	.st13{fill:#00B8F0;}
	.st14{fill:#656769;}
	.st15{fill:#87898C;}
	.st16{fill:#FF6242;stroke:#45413C;stroke-linecap:round;stroke-linejoin:round;stroke-miterlimit:10;}
	.st17{fill:#4AEFF7;}
	.st18{fill:#00DFEB;}
	.st19{fill:#A6FBFF;}
	.st20{fill:#FFFFFF;}
	.st21{fill:#E5F8FF;}
	.st22{fill:#E5F8FF;stroke:#45413C;stroke-linecap:round;stroke-linejoin:round;stroke-miterlimit:10;}
	.st23{fill:#FFE500;stroke:#EBCB00;stroke-linecap:round;stroke-linejoin:round;stroke-miterlimit:10;}
	.st24{fill:#BDBEC0;}
	.st25{fill:#4ACFFF;}
	.st26{fill:#E8F4FA;stroke:#45413C;stroke-linecap:round;stroke-linejoin:round;stroke-miterlimit:10;}
	.st27{fill:#80DDFF;}
	.st28{fill:#009FD9;stroke:#45413C;stroke-linecap:round;stroke-linejoin:round;stroke-miterlimit:10;}
	.st29{fill:#B8ECFF;}
	.st30{fill:#4ACFFF;stroke:#45413C;stroke-linecap:round;stroke-linejoin:round;stroke-miterlimit:10;}
	.st31{fill:#B8ECFF;stroke:#45413C;stroke-linecap:round;stroke-linejoin:round;stroke-miterlimit:10;}
	.st32{fill:#FFFACF;}
	.st33{fill:#FFF48C;stroke:#45413C;stroke-linecap:round;stroke-linejoin:round;stroke-miterlimit:10;}
	.st34{fill:#BF8256;}
	.st35{fill:#DEA47A;}
	.st36{fill:#656769;stroke:#45413C;stroke-linecap:round;stroke-linejoin:round;stroke-miterlimit:10;}
	.st37{fill:#FF8A14;}
	.st38{fill:#FFAA54;}
	.st39{fill:#EB6D00;}
	.st40{fill:#627B8C;stroke:#45413C;stroke-linecap:round;stroke-linejoin:round;stroke-miterlimit:10;}
	.st41{fill:#FFFFFF;stroke:#45413C;stroke-linecap:round;stroke-linejoin:round;stroke-miterlimit:10;}
	.st42{fill:#E0366F;stroke:#45413C;stroke-linecap:round;stroke-linejoin:round;stroke-miterlimit:10;}
	.st43{fill:#FF87AF;stroke:#45413C;stroke-linecap:round;stroke-linejoin:round;stroke-miterlimit:10;}
	.st44{fill:#E0366F;}
	.st45{fill:#FF6196;stroke:#45413C;stroke-linecap:round;stroke-linejoin:round;stroke-miterlimit:10;}
	.st46{fill:#525252;}
	.st47{fill:#DEBB7E;}
	.st48{fill:#F0D5A8;}
	.st49{fill:#DAEDF7;}
	.st50{fill:#F7E5C6;}
	.st51{fill:#DEBB7E;stroke:#45413C;stroke-linecap:round;stroke-linejoin:round;stroke-miterlimit:10;}
	.st52{fill:#FFF5E3;}
	.st53{fill:#00F5BC;}
	.st54{fill:#FFB0CA;stroke:#45413C;stroke-linecap:round;stroke-linejoin:round;stroke-miterlimit:10;}
	.st55{fill:#8CFFE4;}
	.st56{fill:#00DBA8;}
	.st57{fill:#87898C;stroke:#45413C;stroke-linecap:round;stroke-linejoin:round;stroke-miterlimit:10;}
	.st58{fill:#FF6242;}
	.st59{fill:#FF866E;}
	.st60{fill:#F0F0F0;}
	.st61{fill:#BDBEC0;stroke:#45413C;stroke-width:1.0064;stroke-linecap:round;stroke-linejoin:round;stroke-miterlimit:10;}
	.st62{fill:#947746;stroke:#45413C;stroke-linecap:round;stroke-linejoin:round;stroke-miterlimit:10;}
	.st63{fill:#B89558;}
	.st64{fill:#E04122;}
	.st65{fill:#C0DCEB;}
	.st66{fill:#E8F4FA;}
	.st67{fill:#00B8F0;stroke:#45413C;stroke-linecap:round;stroke-linejoin:round;stroke-miterlimit:10;}
	.st68{fill:#80DDFF;stroke:#45413C;stroke-linecap:round;stroke-linejoin:round;stroke-miterlimit:10;}
	.st69{fill:#9CEB60;}
	.st70{fill:#C8FFA1;}
	.st71{fill:#FFB0CA;}
	.st72{fill:#FFCCDD;}
	.st73{fill:#FFE5EE;}
	.st74{fill:#45413C;stroke:#45413C;stroke-linecap:round;stroke-linejoin:round;stroke-miterlimit:10;}
	.st75{fill:#FFCABF;}
	.st76{fill:#FFA694;}
	.st77{fill:#FFA694;stroke:#45413C;stroke-linecap:round;stroke-linejoin:round;stroke-miterlimit:10;}
	.st78{fill:#FFCC99;}
	.st79{fill:#8CA4B8;}
	.st80{fill:#ADC4D9;}
	.st81{fill:#F0D5A8;stroke:#45413C;stroke-linecap:round;stroke-linejoin:round;stroke-miterlimit:10;}
	.st82{fill:#BDBEC0;stroke:#45413C;stroke-linecap:round;stroke-linejoin:round;stroke-miterlimit:10;}
	.st83{fill:#E0E0E0;}
	.st84{fill:#45413C;}
	.st85{fill:#E5FEFF;}
	.st86{fill:#FFFCE5;}
	.st87{fill:#FFAA54;stroke:#45413C;stroke-linecap:round;stroke-linejoin:round;stroke-miterlimit:10;}
	.st88{fill:#6DD627;}
	.st89{fill:#46B000;}
	.st90{fill:#FFE8E0;}
	.st91{fill:#FFCEBF;}
	.st92{fill:#FFE8D1;}
	.st93{fill:#FFF48C;stroke:#4F4B45;stroke-linecap:round;stroke-linejoin:round;stroke-miterlimit:10;}
	.st94{fill:#FFDCD1;stroke:#4F4B45;stroke-linejoin:round;stroke-miterlimit:10;}
	.st95{fill:none;stroke:#4F4B45;stroke-linejoin:round;stroke-miterlimit:10;}
	.st96{fill:none;stroke:#4F4B45;stroke-linecap:round;stroke-linejoin:round;stroke-miterlimit:10;}
	.st97{fill:#656769;stroke:#4F4B45;stroke-linejoin:round;stroke-miterlimit:10;}
	.st98{fill:#87898C;stroke:#4F4B45;stroke-linecap:round;stroke-linejoin:round;stroke-miterlimit:10;}
	.st99{fill:#C0DCEB;stroke:#4F4B45;stroke-linecap:round;stroke-linejoin:round;stroke-miterlimit:10;}
	.st100{fill:#FFA694;stroke:#4F4B45;stroke-linecap:round;stroke-linejoin:round;stroke-miterlimit:10;}
	.st101{fill:#E04122;stroke:#45413C;stroke-linecap:round;stroke-linejoin:round;stroke-miterlimit:10;}
	.st102{fill:#FFFCE5;stroke:#45413C;stroke-linecap:round;stroke-linejoin:round;stroke-miterlimit:10;}
	.st103{fill:#915E3A;}
	.st104{fill:none;stroke:#915E3A;stroke-linecap:round;stroke-linejoin:round;stroke-miterlimit:10;}
	.st105{fill:#915E3A;stroke:#45413C;stroke-linecap:round;stroke-linejoin:round;stroke-miterlimit:10;}
	.st106{fill:#FF866E;stroke:#45413C;stroke-linecap:round;stroke-linejoin:round;stroke-miterlimit:10;}
	.st107{fill:#FFF5E3;stroke:#45413C;stroke-linecap:round;stroke-linejoin:round;stroke-miterlimit:10;}
	.st108{fill:#FFDCD1;}
	.st109{fill:#FFDCD1;stroke:#45413C;stroke-linecap:round;stroke-linejoin:round;stroke-miterlimit:10;}
	.st110{fill:#F0C2A1;}
	.st111{fill:#FFE3CF;}
	.st112{fill:#FFFACF;stroke:#45413C;stroke-linecap:round;stroke-linejoin:round;stroke-miterlimit:10;}
	.st113{fill:#DEA47A;stroke:#45413C;stroke-linecap:round;stroke-linejoin:round;stroke-miterlimit:10;}
	.st114{fill:#F0C2A1;stroke:#45413C;stroke-linecap:round;stroke-linejoin:round;stroke-miterlimit:10;}
	.st115{fill:#EB6D00;stroke:#45413C;stroke-linecap:round;stroke-linejoin:round;stroke-miterlimit:10;}
	.st116{fill:#FF8A14;stroke:#45413C;stroke-linecap:round;stroke-linejoin:round;stroke-miterlimit:10;}
	.st117{fill:#D9FDFF;}
	.st118{fill:#C8FFA1;stroke:#45413C;stroke-linecap:round;stroke-linejoin:round;stroke-miterlimit:10;}
	.st119{fill:#E4FFD1;}
	.st120{fill:#E0E0E0;stroke:#45413C;stroke-linecap:round;stroke-linejoin:round;stroke-miterlimit:10;}
	.st121{fill:#FFCCDD;stroke:#45413C;stroke-linecap:round;stroke-linejoin:round;stroke-miterlimit:10;}
	.st122{fill:#BF8256;stroke:#45413C;stroke-linecap:round;stroke-linejoin:round;stroke-miterlimit:10;}
	.st123{fill:#C0DCEB;stroke:#45413C;stroke-linecap:round;stroke-linejoin:round;stroke-miterlimit:10;}
</style>
<g>
	<circle id="XMLID_12099_" class="st83" cx="12.7" cy="11.6" r="9.4"/>
	<circle id="XMLID_12098_" class="st83" cx="35.3" cy="11.6" r="9.4"/>
	<path id="XMLID_12097_" class="st60" d="M12.7,4.5c4.8,0,8.8,3.6,9.4,8.3c0-0.4,0.1-0.8,0.1-1.2c0-5.2-4.2-9.4-9.4-9.4   c-5.2,0-9.4,4.2-9.4,9.4c0,0.4,0,0.8,0.1,1.2C3.9,8.1,7.9,4.5,12.7,4.5z"/>
	<path id="XMLID_12096_" class="st60" d="M35.3,4.5c4.8,0,8.8,3.6,9.4,8.3c0-0.4,0.1-0.8,0.1-1.2c0-5.2-4.2-9.4-9.4-9.4   c-5.2,0-9.4,4.2-9.4,9.4c0,0.4,0,0.8,0.1,1.2C26.5,8.1,30.5,4.5,35.3,4.5z"/>
	<circle id="XMLID_12095_" class="st3" cx="12.7" cy="11.6" r="9.4"/>
	<circle id="XMLID_12094_" class="st3" cx="35.3" cy="11.6" r="9.4"/>
	<circle id="XMLID_12093_" class="st24" cx="12.7" cy="11.6" r="6.6"/>
	<circle id="XMLID_12092_" class="st24" cx="35.3" cy="11.6" r="6.6"/>
	<path id="XMLID_12091_" class="st15" d="M12.7,7.4c3.2,0,5.9,2.3,6.5,5.4c0.1-0.4,0.1-0.8,0.1-1.2c0-3.6-3-6.6-6.6-6.6   c-3.6,0-6.6,3-6.6,6.6c0,0.4,0,0.8,0.1,1.2C6.8,9.8,9.5,7.4,12.7,7.4z"/>
	<path id="XMLID_12090_" class="st15" d="M35.3,7.4c3.2,0,5.9,2.3,6.5,5.4c0.1-0.4,0.1-0.8,0.1-1.2c0-3.6-3-6.6-6.6-6.6   c-3.6,0-6.6,3-6.6,6.6c0,0.4,0,0.8,0.1,1.2C29.4,9.8,32.1,7.4,35.3,7.4z"/>
	<circle id="XMLID_12089_" class="st3" cx="12.7" cy="11.6" r="6.6"/>
	<circle id="XMLID_12088_" class="st3" cx="35.3" cy="11.6" r="6.6"/>
	<path class="st83" d="M36,21.9c-0.3-6.5-5.6-11.7-12-11.7s-11.6,5.2-12,11.7c-2.7,0.9-4.7,3.5-4.7,6.6c0,2.9,2.6,4.7,4.9,5.8   c2.5,1.1,3.9,2.7,5.8,4.7c1.6,1.8,2.7,3.5,6,3.5c3.3,0,4.3-1.7,6-3.5c1.9-2,3.3-3.6,5.8-4.7c2.3-1,4.9-2.9,4.9-5.8   C40.6,25.4,38.7,22.8,36,21.9z"/>
	<path class="st60" d="M36,21.9c-0.3-6.5-5.6-11.7-12-11.7s-11.6,5.2-12,11.7c-2.7,0.9-4.7,3.5-4.7,6.6c0,0.4,0.1,0.8,0.2,1.2   c0.4-2.2,1.9-4,3.8-4.9c0.4-0.2,0.8-0.6,0.8-1.1c0.7-6.1,5.8-10.9,11.9-10.9s11.2,4.8,11.9,10.9c0.1,0.5,0.4,0.9,0.8,1.1   c1.9,0.9,3.3,2.7,3.8,4.9c0.1-0.4,0.2-0.8,0.2-1.2C40.6,25.4,38.7,22.8,36,21.9z"/>
	<path class="st3" d="M36,21.9c-0.3-6.5-5.6-11.7-12-11.7s-11.6,5.2-12,11.7c-2.7,0.9-4.7,3.5-4.7,6.6c0,2.9,2.6,4.7,4.9,5.8   c2.5,1.1,3.9,2.7,5.8,4.7c1.6,1.8,2.7,3.5,6,3.5c3.3,0,4.3-1.7,6-3.5c1.9-2,3.3-3.6,5.8-4.7c2.3-1,4.9-2.9,4.9-5.8   C40.6,25.4,38.7,22.8,36,21.9z"/>
	<ellipse id="XMLID_12087_" class="st0" cx="24" cy="45.5" rx="11.5" ry="1.5"/>
	<path id="XMLID_12086_" class="st76" d="M26.8,35.3c0,0.6-1.3,2.2-2.8,2.2c-1.6,0-2.8-1.6-2.8-2.2c0-0.6,1.3-1.1,2.8-1.1   C25.6,34.1,26.8,34.6,26.8,35.3z"/>
	<path id="XMLID_12085_" class="st75" d="M24,35.6c1,0,1.9,0.2,2.4,0.6c0.2-0.3,0.4-0.7,0.4-0.9c0-0.6-1.3-1.1-2.8-1.1   s-2.8,0.5-2.8,1.1c0,0.2,0.1,0.5,0.4,0.9C22.1,35.8,23,35.6,24,35.6z"/>
	<path id="XMLID_12084_" class="st3" d="M26.8,35.3c0,0.6-1.3,2.2-2.8,2.2c-1.6,0-2.8-1.6-2.8-2.2c0-0.6,1.3-1.1,2.8-1.1   C25.6,34.1,26.8,34.6,26.8,35.3z"/>
	<circle id="XMLID_12083_" class="st74" cx="30.2" cy="24.8" r="1.4"/>
	<circle id="XMLID_12082_" class="st74" cx="17.8" cy="24.8" r="1.4"/>
	<ellipse id="XMLID_12081_" class="st76" cx="36.2" cy="28.7" rx="1.7" ry="1"/>
	<ellipse id="XMLID_12080_" class="st76" cx="11.8" cy="28.7" rx="1.7" ry="1"/>
	<path id="XMLID_12079_" class="st3" d="M29.7,34.7c0,0,4.4-0.9,8.5,2.8"/>
	<path id="XMLID_12078_" class="st3" d="M29.7,36.6c0,0,4.3,0.5,6.1,4.2"/>
	<path id="XMLID_12077_" class="st3" d="M18.3,34.7c0,0-4.4-0.9-8.5,2.8"/>
	<path id="XMLID_12076_" class="st3" d="M18.3,36.6c0,0-4.3,0.5-6.1,4.2"/>
</g>
</svg>